<svg width="24" height="24" viewBox="0 0 24 24" fill="none" xmlns="http://www.w3.org/2000/svg">
    <path fill-rule="evenodd" clip-rule="evenodd" d="M8.45818 12.7193C8.27071 12.5317 8.1654 12.2774 8.1654 12.0123C8.1654 11.7471 8.27071 11.4928 8.45818 11.3053L14.1152 5.64827C14.2074 5.55276 14.3178 5.47658 14.4398 5.42417C14.5618 5.37176 14.693 5.34417 14.8258 5.34302C14.9586 5.34187 15.0902 5.36717 15.2131 5.41745C15.336 5.46773 15.4477 5.54198 15.5416 5.63588C15.6355 5.72977 15.7097 5.84142 15.76 5.96432C15.8103 6.08721 15.8356 6.21889 15.8344 6.35167C15.8333 6.48445 15.8057 6.61567 15.7533 6.73768C15.7009 6.85968 15.6247 6.97002 15.5292 7.06227L10.5792 12.0123L15.5292 16.9623C15.7113 17.1509 15.8121 17.4035 15.8099 17.6657C15.8076 17.9279 15.7024 18.1787 15.517 18.3641C15.3316 18.5495 15.0808 18.6547 14.8186 18.6569C14.5564 18.6592 14.3038 18.5584 14.1152 18.3763L8.45818 12.7193Z" fill="#1A1A1A"/>
</svg>
