<svg width="20" height="20" viewBox="0 0 20 20" fill="none" xmlns="http://www.w3.org/2000/svg">
    <path d="M8.125 2.5H4.79167C4.21018 2.5 3.91944 2.5 3.68286 2.57177C3.15019 2.73335 2.73335 3.15019 2.57177 3.68286C2.5 3.91944 2.5 4.21018 2.5 4.79167C2.5 5.37315 2.5 5.66389 2.57177 5.90048C2.73335 6.43314 3.15019 6.84998 3.68286 7.01157C3.91944 7.08333 4.21018 7.08333 4.79167 7.08333H8.125C8.7065 7.08333 8.99725 7.08333 9.23383 7.01157C9.7665 6.84998 10.1833 6.43314 10.3449 5.90048C10.4167 5.66389 10.4167 5.37315 10.4167 4.79167C10.4167 4.21018 10.4167 3.91944 10.3449 3.68286C10.1833 3.15019 9.7665 2.73335 9.23383 2.57177C8.99725 2.5 8.7065 2.5 8.125 2.5Z" stroke="#FF7F00" stroke-width="1.5" stroke-linejoin="round"/>
    <path d="M17.5001 8.125V4.79167C17.5001 4.21018 17.5001 3.91944 17.4283 3.68286C17.2667 3.15019 16.8499 2.73335 16.3172 2.57177C16.0807 2.5 15.7899 2.5 15.2084 2.5C14.6269 2.5 14.3362 2.5 14.0996 2.57177C13.5669 2.73335 13.1501 3.15019 12.9885 3.68286C12.9167 3.91944 12.9167 4.21018 12.9167 4.79167V8.125C12.9167 8.7065 12.9167 8.99725 12.9885 9.23383C13.1501 9.7665 13.5669 10.1833 14.0996 10.3449C14.3362 10.4167 14.6269 10.4167 15.2084 10.4167C15.7899 10.4167 16.0807 10.4167 16.3172 10.3449C16.8499 10.1833 17.2667 9.7665 17.4283 9.23383C17.5001 8.99725 17.5001 8.7065 17.5001 8.125Z" stroke="#FF7F00" stroke-width="1.5" stroke-linejoin="round"/>
    <path d="M14.0996 17.4283C14.3362 17.5001 14.6269 17.5001 15.2084 17.5001C15.7899 17.5001 16.0807 17.5001 16.3172 17.4283C16.8499 17.2667 17.2667 16.8499 17.4283 16.3172C17.5001 16.0807 17.5001 15.7899 17.5001 15.2084C17.5001 14.6269 17.5001 14.3362 17.4283 14.0996C17.2667 13.5669 16.8499 13.1501 16.3172 12.9885C16.0807 12.9167 15.7899 12.9167 15.2084 12.9167C14.6269 12.9167 14.3362 12.9167 14.0996 12.9885C13.5669 13.1501 13.1501 13.5669 12.9885 14.0996C12.9167 14.3362 12.9167 14.6269 12.9167 15.2084C12.9167 15.7899 12.9167 16.0807 12.9885 16.3172C13.1501 16.8499 13.5669 17.2667 14.0996 17.4283Z" stroke="#FF7F00" stroke-width="1.5" stroke-linejoin="round"/>
    <path d="M7.08333 9.58325H5.83333C4.26198 9.58325 3.47631 9.58325 2.98816 10.0714C2.5 10.5596 2.5 11.3453 2.5 12.9166V14.1666C2.5 15.7379 2.5 16.5236 2.98816 17.0118C3.47631 17.4999 4.26198 17.4999 5.83333 17.4999H7.08333C8.65467 17.4999 9.44033 17.4999 9.9285 17.0118C10.4167 16.5236 10.4167 15.7379 10.4167 14.1666V12.9166C10.4167 11.3453 10.4167 10.5596 9.9285 10.0714C9.44033 9.58325 8.65467 9.58325 7.08333 9.58325Z" stroke="#FF7F00" stroke-width="1.5" stroke-linejoin="round"/>
</svg>
