<svg width="40" height="40" viewBox="0 0 40 40" fill="none" xmlns="http://www.w3.org/2000/svg">
<circle cx="20" cy="20" r="19.75" fill="white" stroke="#C2C2C2" stroke-width="0.5"/>
<path d="M26.6673 18.3332C26.6673 23.3332 20.0007 28.3332 20.0007 28.3332C20.0007 28.3332 13.334 23.3332 13.334 18.3332C13.334 16.5651 14.0364 14.8694 15.2866 13.6191C16.5368 12.3689 18.2325 11.6665 20.0007 11.6665C21.7688 11.6665 23.4645 12.3689 24.7147 13.6191C25.9649 14.8694 26.6673 16.5651 26.6673 18.3332Z" stroke="#0E7F3F" stroke-linecap="round" stroke-linejoin="round"/>
<path d="M20 20.8335C21.3807 20.8335 22.5 19.7142 22.5 18.3335C22.5 16.9528 21.3807 15.8335 20 15.8335C18.6193 15.8335 17.5 16.9528 17.5 18.3335C17.5 19.7142 18.6193 20.8335 20 20.8335Z" stroke="#0E7F3F" stroke-linecap="round" stroke-linejoin="round"/>
</svg>
