<svg width="24" height="24" viewBox="0 0 24 24" fill="none" xmlns="http://www.w3.org/2000/svg">
    <path d="M12 10.8889C12.9041 10.8889 13.788 10.6282 14.5397 10.1399C15.2915 9.6515 15.8774 8.95738 16.2235 8.14526C16.5695 7.33315 16.66 6.43952 16.4836 5.57738C16.3072 4.71524 15.8718 3.92332 15.2325 3.30175C14.5932 2.68018 13.7786 2.25689 12.8918 2.0854C12.0051 1.91391 11.0859 2.00193 10.2506 2.33832C9.41527 2.6747 8.70131 3.24436 8.199 3.97525C7.69668 4.70613 7.42857 5.56542 7.42857 6.44445C7.42857 7.62319 7.9102 8.75365 8.76751 9.58714C9.62482 10.4206 10.7876 10.8889 12 10.8889ZM18.8571 22C19.1602 22 19.4509 21.8829 19.6653 21.6746C19.8796 21.4662 20 21.1836 20 20.8889C20 18.8261 19.1571 16.8478 17.6569 15.3892C16.1566 13.9306 14.1217 13.1111 12 13.1111C9.87827 13.1111 7.84344 13.9306 6.34315 15.3892C4.84285 16.8478 4 18.8261 4 20.8889C4 21.1836 4.12041 21.4662 4.33474 21.6746C4.54906 21.8829 4.83975 22 5.14286 22H18.8571Z" fill="#FF7F00"/>
</svg>
