<svg width="25" height="24" viewBox="0 0 25 24" fill="none" xmlns="http://www.w3.org/2000/svg">
<path d="M6.9996 6.99991C8.46095 5.53856 10.0931 4.4189 11.1971 3.74078C12.0017 3.24656 12.9975 3.24656 13.8021 3.74078C14.9061 4.4189 16.5382 5.53856 17.9996 6.99991C21.168 10.1683 20.9996 11.9999 20.9996 14.9999C20.9996 16.4097 20.8892 17.5987 20.7721 18.4631C20.649 19.3725 19.8558 19.9999 18.938 19.9999H17.4996C16.395 19.9999 15.4996 19.1045 15.4996 17.9999V15.9999C15.4996 15.2043 15.1835 14.4412 14.6209 13.8786C14.0583 13.316 13.2952 12.9999 12.4996 12.9999C11.7039 12.9999 10.9409 13.316 10.3783 13.8786C9.81567 14.4412 9.4996 15.2043 9.4996 15.9999V17.9999C9.4996 19.1045 8.60417 19.9999 7.4996 19.9999H6.06115C5.14342 19.9999 4.35025 19.3725 4.22708 18.4631C4.11002 17.5987 3.9996 16.4097 3.9996 14.9999C3.9996 11.9999 3.8312 10.1683 6.9996 6.99991Z" fill="#FFE600" stroke="#FFE600" stroke-width="1.5" stroke-linecap="round" stroke-linejoin="round"/>
</svg>
