<svg width="25" height="24" viewBox="0 0 25 24" fill="none" xmlns="http://www.w3.org/2000/svg">
<path d="M3.5 9H21.5V19C21.5 19.5304 21.2893 20.0391 20.9142 20.4142C20.5391 20.7893 20.0304 21 19.5 21H5.5C4.96957 21 4.46086 20.7893 4.08579 20.4142C3.71071 20.0391 3.5 19.5304 3.5 19V9Z" stroke="#0E7F3F" stroke-width="1.5" stroke-linecap="round" stroke-linejoin="round"/>
<path d="M3.5 9.00005L5.95 4.10005C6.11696 3.7687 6.37281 3.49034 6.68893 3.29607C7.00504 3.10181 7.36897 2.99932 7.74 3.00005H17.26C17.6327 2.99745 17.9988 3.09907 18.3168 3.29344C18.6349 3.4878 18.8923 3.76718 19.06 4.10005L21.5 9.00005" stroke="#0E7F3F" stroke-width="1.5" stroke-linecap="round" stroke-linejoin="round"/>
<path d="M12.5 3V9" stroke="#0E7F3F" stroke-width="1.5" stroke-linecap="round" stroke-linejoin="round"/>
</svg>
