<svg width="25" height="24" viewBox="0 0 25 24" fill="none" xmlns="http://www.w3.org/2000/svg">
<path d="M12.5 16C14.7091 16 16.5 14.2091 16.5 12C16.5 9.79086 14.7091 8 12.5 8C10.2909 8 8.5 9.79086 8.5 12C8.5 14.2091 10.2909 16 12.5 16Z" stroke="#6E6E6E" stroke-width="1.5" stroke-linecap="round" stroke-linejoin="round"/>
<path d="M16.5 8.00001V13C16.5 13.7957 16.8161 14.5587 17.3787 15.1213C17.9413 15.6839 18.7044 16 19.5 16C20.2957 16 21.0587 15.6839 21.6213 15.1213C22.1839 14.5587 22.5 13.7957 22.5 13V12C22.5 9.74731 21.7394 7.56061 20.3414 5.79418C18.9434 4.02775 16.99 2.78508 14.7975 2.26752C12.6051 1.74996 10.3021 1.98782 8.26178 2.94256C6.22141 3.89731 4.56318 5.513 3.55574 7.52787C2.5483 9.54274 2.25069 11.8387 2.71111 14.0439C3.17154 16.249 4.36303 18.2341 6.09254 19.6775C7.82205 21.1209 9.98825 21.9381 12.2402 21.9966C14.4921 22.0552 16.6979 21.3516 18.5 20" stroke="#6E6E6E" stroke-width="1.5" stroke-linecap="round" stroke-linejoin="round"/>
</svg>
