<svg width="20" height="20" viewBox="0 0 20 20" fill="none" xmlns="http://www.w3.org/2000/svg">
    <path d="M16.6667 5.83325H9.16675" stroke="#FF7F00" stroke-width="1.5" stroke-linecap="round" stroke-linejoin="round"/>
    <path d="M11.6667 14.1667H4.16675" stroke="#FF7F00" stroke-width="1.5" stroke-linecap="round" stroke-linejoin="round"/>
    <path d="M14.1667 16.6667C15.5475 16.6667 16.6667 15.5475 16.6667 14.1667C16.6667 12.786 15.5475 11.6667 14.1667 11.6667C12.786 11.6667 11.6667 12.786 11.6667 14.1667C11.6667 15.5475 12.786 16.6667 14.1667 16.6667Z" stroke="#FF7F00" stroke-width="1.5" stroke-linecap="round" stroke-linejoin="round"/>
    <path d="M5.83325 8.33325C7.21396 8.33325 8.33325 7.21396 8.33325 5.83325C8.33325 4.45254 7.21396 3.33325 5.83325 3.33325C4.45254 3.33325 3.33325 4.45254 3.33325 5.83325C3.33325 7.21396 4.45254 8.33325 5.83325 8.33325Z" stroke="#FF7F00" stroke-width="1.5" stroke-linecap="round" stroke-linejoin="round"/>
</svg>
