<svg width="25" height="24" viewBox="0 0 25 24" fill="none" xmlns="http://www.w3.org/2000/svg">
<path d="M18.5 8C18.5 12.5 12.5 17 12.5 17C12.5 17 6.5 12.5 6.5 8C6.5 6.4087 7.13214 4.88258 8.25736 3.75736C9.38258 2.63214 10.9087 2 12.5 2C14.0913 2 15.6174 2.63214 16.7426 3.75736C17.8679 4.88258 18.5 6.4087 18.5 8Z" stroke="#0E7F3F" stroke-width="1.5" stroke-linecap="round" stroke-linejoin="round"/>
<path d="M12.5 10C13.6046 10 14.5 9.10457 14.5 8C14.5 6.89543 13.6046 6 12.5 6C11.3954 6 10.5 6.89543 10.5 8C10.5 9.10457 11.3954 10 12.5 10Z" stroke="#0E7F3F" stroke-width="1.5" stroke-linecap="round" stroke-linejoin="round"/>
<path d="M9.335 14H5.5C5.29653 14.0111 5.10131 14.0841 4.94046 14.2092C4.77962 14.3343 4.66083 14.5055 4.6 14.7L2.6 20.7C2.5 20.8 2.5 20.9 2.5 21C2.5 21.6 2.9 22 3.5 22H21.5C22.1 22 22.5 21.6 22.5 21C22.5 20.9 22.5 20.8 22.4 20.7L20.4 14.7C20.3392 14.5055 20.2204 14.3343 20.0595 14.2092C19.8987 14.0841 19.7035 14.0111 19.5 14H15.665" stroke="#0E7F3F" stroke-width="1.5" stroke-linecap="round" stroke-linejoin="round"/>
</svg>
