<svg width="65" height="28" viewBox="0 0 65 28" fill="none" xmlns="http://www.w3.org/2000/svg">
<rect x="0.25" y="0.25" width="64.5" height="27.5" rx="5.75" fill="white"/>
<rect x="0.25" y="0.25" width="64.5" height="27.5" rx="5.75" stroke="#C2C2C2" stroke-width="0.5"/>
<path d="M8.515 18.5L8.963 17.632H11.595C12.0243 17.632 12.323 17.5247 12.491 17.31C12.6683 17.0953 12.757 16.722 12.757 16.19C12.757 14.818 12.155 13.796 10.951 13.124L11.413 12.354C12.897 13.2127 13.653 14.4213 13.681 15.98C13.6903 17.0813 14.227 17.632 15.291 17.632H15.725V18.5H15.193C14.381 18.5 13.7603 18.2293 13.331 17.688C13.0137 18.2293 12.4863 18.5 11.749 18.5H8.515ZM15.4401 18.5V17.632H15.9301C16.9567 17.632 17.4701 17.1 17.4701 16.036V12.998L18.4081 12.508V16.064C18.4081 16.848 18.1794 17.4593 17.7221 17.898C17.3021 18.2993 16.7421 18.5 16.0421 18.5H15.4401ZM15.9021 21.118C15.5194 21.118 15.3281 20.922 15.3281 20.53C15.3281 20.1567 15.5194 19.97 15.9021 19.97C16.2661 19.97 16.4481 20.1567 16.4481 20.53C16.4481 20.922 16.2661 21.118 15.9021 21.118ZM17.4981 21.118C17.1154 21.118 16.9241 20.922 16.9241 20.53C16.9241 20.1567 17.1154 19.97 17.4981 19.97C17.8621 19.97 18.0441 20.1567 18.0441 20.53C18.0441 20.922 17.8621 21.118 17.4981 21.118ZM19.808 18.5L20.256 17.632H22.888C23.3173 17.632 23.616 17.5247 23.784 17.31C23.9613 17.0953 24.05 16.722 24.05 16.19C24.05 14.818 23.448 13.796 22.244 13.124L22.706 12.354C24.19 13.2127 24.946 14.4213 24.974 15.98C24.9833 17.0813 25.52 17.632 26.584 17.632H27.018V18.5H26.486C25.674 18.5 25.0533 18.2293 24.624 17.688C24.3066 18.2293 23.7793 18.5 23.042 18.5H19.808ZM26.733 18.5V17.632H28.301C30.3357 17.632 31.9224 16.9413 33.061 15.56C32.2304 13.9733 31.227 13.18 30.051 13.18C29.2484 13.18 28.4644 13.586 27.699 14.398V13.474C28.4644 12.718 29.2624 12.34 30.093 12.34H30.121C31.5864 12.34 32.8557 13.3293 33.929 15.308V15.882C32.5664 17.6273 30.6857 18.5 28.287 18.5H26.733ZM30.429 21.118C30.0464 21.118 29.855 20.922 29.855 20.53C29.855 20.1567 30.0464 19.97 30.429 19.97C30.793 19.97 30.975 20.1567 30.975 20.53C30.975 20.922 30.793 21.118 30.429 21.118Z" fill="#0E7F3F"/>
<path d="M49 6.5L47.4067 11.3442C47.3251 11.5921 47.1865 11.8174 47.0019 12.0019C46.8174 12.1865 46.5921 12.3251 46.3442 12.4067L41.5 14L46.3442 15.5933C46.5921 15.6749 46.8174 15.8135 47.0019 15.9981C47.1865 16.1826 47.3251 16.4079 47.4067 16.6558L49 21.5L50.5933 16.6558C50.6749 16.4079 50.8135 16.1826 50.9981 15.9981C51.1826 15.8135 51.4079 15.6749 51.6558 15.5933L56.5 14L51.6558 12.4067C51.4079 12.3251 51.1826 12.1865 50.9981 12.0019C50.8135 11.8174 50.6749 11.5921 50.5933 11.3442L49 6.5Z" stroke="#0E7F3F" stroke-linecap="round" stroke-linejoin="round"/>
<path d="M43.166 6.5V9.83333" stroke="#0E7F3F" stroke-linecap="round" stroke-linejoin="round"/>
<path d="M54.834 18.1665V21.4998" stroke="#0E7F3F" stroke-linecap="round" stroke-linejoin="round"/>
<path d="M41.5 8.1665H44.8333" stroke="#0E7F3F" stroke-linecap="round" stroke-linejoin="round"/>
<path d="M53.166 19.8335H56.4993" stroke="#0E7F3F" stroke-linecap="round" stroke-linejoin="round"/>
</svg>
