<svg xmlns="http://www.w3.org/2000/svg" version="1.1" xmlns:xlink="http://www.w3.org/1999/xlink" width="512" height="512" x="0" y="0" viewBox="0 0 512 512" style="enable-background:new 0 0 512 512" xml:space="preserve" class=""><g><path d="M389.324 261.47v-136.1a6 6 0 0 0-3-5.196L202.662 14.136a5.999 5.999 0 0 0-6 0L13 120.173a6.002 6.002 0 0 0-3 5.196v212.075a6 6 0 0 0 3 5.196l183.662 106.037a5.997 5.997 0 0 0 6 0l65.991-38.099c13.525 50.662 59.806 88.09 114.671 88.09 65.438 0 118.676-53.237 118.676-118.675 0-63.425-50.014-115.388-112.676-118.523zm-189.662-36.991-65.227-37.659 173.538-98.026 63.351 36.576zM95.081 177.955l21.167 12.221-1.658 65.166-21.192-12.235zm7.291-9.647 172.593-98.572 20.942 12.091-173.537 98.027zm97.29-142.048 63.271 36.529-172.594 98.572L28 125.369zM22 135.762l61.253 35.364-1.943 75.238a6.003 6.003 0 0 0 2.998 5.352l33.023 19.066a6.005 6.005 0 0 0 5.934.037 5.996 5.996 0 0 0 3.064-5.081l1.749-68.732 65.584 37.865V433.09L22 333.981zM205.662 433.09V234.871l171.662-99.109V261.47c-62.661 3.135-112.675 55.098-112.675 118.524 0 6.198.48 12.287 1.4 18.232zm177.662 53.578c-58.82 0-106.675-47.854-106.675-106.675s47.854-106.675 106.675-106.675S490 321.172 490 379.993s-47.854 106.675-106.676 106.675zm64.112-151.578c0-5.131-1.998-9.954-5.626-13.581-7.487-7.489-19.674-7.491-27.163 0l-31.321 31.32-31.321-31.32c-3.628-3.628-8.451-5.626-13.582-5.626s-9.954 1.998-13.582 5.625c-3.628 3.628-5.626 8.451-5.626 13.582s1.998 9.954 5.626 13.582l31.32 31.321-31.32 31.321c-7.49 7.489-7.49 19.675 0 27.165 3.745 3.744 8.663 5.616 13.582 5.616s9.837-1.873 13.581-5.617l31.322-31.321 31.321 31.322c7.489 7.487 19.676 7.487 27.163-.001 7.49-7.489 7.49-19.675 0-27.164l-31.32-31.321 31.32-31.321a19.081 19.081 0 0 0 5.626-13.582zm-14.111 5.098-35.563 35.563a5.997 5.997 0 0 0 0 8.484l35.563 35.563c2.811 2.812 2.811 7.385 0 10.194s-7.384 2.81-10.194.001l-35.563-35.564a5.994 5.994 0 0 0-8.484 0l-35.564 35.564c-2.811 2.809-7.384 2.809-10.194 0a7.217 7.217 0 0 1 0-10.195l35.563-35.563a5.997 5.997 0 0 0 0-8.484l-35.563-35.563a7.165 7.165 0 0 1-2.111-5.098c0-1.925.75-3.735 2.111-5.097a7.165 7.165 0 0 1 5.098-2.111c1.925 0 3.735.75 5.097 2.112l35.564 35.562a5.997 5.997 0 0 0 8.484 0l35.563-35.563a7.164 7.164 0 0 1 5.097-2.111c1.926 0 3.735.75 5.098 2.112a7.159 7.159 0 0 1 2.111 5.096 7.169 7.169 0 0 1-2.113 5.098z" fill="#000000" opacity="1" data-original="#000000" class=""></path></g></svg>