<svg width="32" height="32" viewBox="0 0 32 32" fill="none" xmlns="http://www.w3.org/2000/svg">
<rect width="32" height="32" rx="5.33333" fill="white"/>
<path d="M23.6725 19.8036L22.5855 18.3981C22.4371 18.2071 22.3572 17.9798 22.3566 17.7468V13.7133C22.3566 12.198 21.6869 10.7448 20.4948 9.67338C19.3027 8.60193 17.6859 8 16 8C14.3141 8 12.6973 8.60193 11.5052 9.67338C10.3131 10.7448 9.64337 12.198 9.64337 13.7133V17.7468C9.64276 17.9798 9.56291 18.2071 9.41453 18.3981L8.32755 19.8036C8.16296 19.9675 8.05473 20.1708 8.01595 20.3888C7.97716 20.6068 8.00948 20.8302 8.109 21.0321C8.20852 21.234 8.37097 21.4056 8.57672 21.5262C8.78246 21.6468 9.02268 21.7113 9.26833 21.7118H12.8853C13.0311 22.3576 13.4209 22.9382 13.9886 23.3552C14.5563 23.7722 15.2669 24 16 24C16.7331 24 17.4437 23.7722 18.0114 23.3552C18.5791 22.9382 18.9689 22.3576 19.1147 21.7118H22.7317C22.9773 21.7113 23.2175 21.6468 23.4233 21.5262C23.629 21.4056 23.7915 21.234 23.891 21.0321C23.9905 20.8302 24.0228 20.6068 23.9841 20.3888C23.9453 20.1708 23.837 19.9675 23.6725 19.8036ZM16 22.8545C15.6066 22.8535 15.2231 22.7431 14.9022 22.5386C14.5812 22.334 14.3386 22.0452 14.2074 21.7118H17.7926C17.6614 22.0452 17.4188 22.334 17.0978 22.5386C16.7769 22.7431 16.3934 22.8535 16 22.8545ZM9.26833 20.5692C9.29706 20.5452 9.32265 20.5184 9.34461 20.4892L10.457 19.0495C10.7538 18.6673 10.9135 18.2128 10.9147 17.7468V13.7133C10.9147 12.5011 11.4505 11.3385 12.4041 10.4814C13.3578 9.6242 14.6513 9.14265 16 9.14265C17.3487 9.14265 18.6422 9.6242 19.5959 10.4814C20.5495 11.3385 21.0853 12.5011 21.0853 13.7133V17.7468C21.0865 18.2128 21.2462 18.6673 21.543 19.0495L22.6554 20.4892C22.6773 20.5184 22.7029 20.5452 22.7317 20.5692H9.26833Z" fill="black" fill-opacity="0.6"/>
<circle cx="21.3327" cy="10.6667" r="3.33333" fill="#0E7F3F" stroke="white" stroke-width="1.33333"/>
</svg>
