<svg width="18" height="18" viewBox="0 0 18 18" fill="none" xmlns="http://www.w3.org/2000/svg">
    <path d="M17.6315 13.2791L16.4087 11.6979C16.2417 11.483 16.1519 11.2273 16.1512 10.9652V6.42742C16.1512 4.72276 15.3978 3.08792 14.0567 1.88255C12.7156 0.677173 10.8966 0 9 0C7.10338 0 5.28444 0.677173 3.94333 1.88255C2.60222 3.08792 1.84879 4.72276 1.84879 6.42742V10.9652C1.8481 11.2273 1.75827 11.483 1.59135 11.6979L0.36849 13.2791C0.183331 13.4634 0.0615729 13.6921 0.01794 13.9374C-0.0256929 14.1826 0.0106681 14.434 0.122626 14.6611C0.234584 14.8882 0.417344 15.0813 0.648805 15.217C0.880266 15.3527 1.15051 15.4252 1.42687 15.4258H5.49591C5.66004 16.1523 6.09856 16.8054 6.73717 17.2746C7.37578 17.7437 8.17521 18 9 18C9.82479 18 10.6242 17.7437 11.2628 17.2746C11.9014 16.8054 12.34 16.1523 12.5041 15.4258H16.5731C16.8495 15.4252 17.1197 15.3527 17.3512 15.217C17.5827 15.0813 17.7654 14.8882 17.8774 14.6611C17.9893 14.434 18.0257 14.1826 17.9821 13.9374C17.9384 13.6921 17.8167 13.4634 17.6315 13.2791ZM9 16.7113C8.55738 16.7102 8.12598 16.586 7.76494 16.3559C7.4039 16.1258 7.1309 15.8009 6.98336 15.4258H11.0166C10.8691 15.8009 10.5961 16.1258 10.2351 16.3559C9.87402 16.586 9.44262 16.7102 9 16.7113ZM1.42687 14.1403C1.45919 14.1134 1.48798 14.0832 1.51268 14.0503L2.76415 12.4306C3.09799 12.0008 3.27765 11.4894 3.27903 10.9652V6.42742C3.27903 5.06369 3.88178 3.75582 4.95466 2.79152C6.02755 1.82722 7.48271 1.28548 9 1.28548C10.5173 1.28548 11.9724 1.82722 13.0453 2.79152C14.1182 3.75582 14.721 5.06369 14.721 6.42742V10.9652C14.7223 11.4894 14.902 12.0008 15.2359 12.4306L16.4873 14.0503C16.512 14.0832 16.5408 14.1134 16.5731 14.1403H1.42687Z" fill="#1A1A1A"/>
</svg>
