<svg width="25" height="24" viewBox="0 0 25 24" fill="none" xmlns="http://www.w3.org/2000/svg">
<path d="M4.34922 8.6201C4.20326 7.96262 4.22567 7.27894 4.41437 6.63244C4.60308 5.98593 4.95196 5.39754 5.42868 4.92182C5.90541 4.4461 6.49453 4.09844 7.14142 3.91109C7.78832 3.72374 8.47205 3.70276 9.12922 3.8501C9.49093 3.2844 9.98922 2.81886 10.5782 2.49638C11.1671 2.17391 11.8278 2.00488 12.4992 2.00488C13.1707 2.00488 13.8313 2.17391 14.4203 2.49638C15.0092 2.81886 15.5075 3.2844 15.8692 3.8501C16.5274 3.70212 17.2123 3.72301 17.8602 3.91081C18.5081 4.09862 19.098 4.44724 19.5751 4.92425C20.0521 5.40126 20.4007 5.99117 20.5885 6.6391C20.7763 7.28703 20.7972 7.97193 20.6492 8.6301C21.2149 8.99181 21.6805 9.4901 22.0029 10.079C22.3254 10.668 22.4944 11.3286 22.4944 12.0001C22.4944 12.6715 22.3254 13.3322 22.0029 13.9211C21.6805 14.5101 21.2149 15.0084 20.6492 15.3701C20.7966 16.0273 20.7756 16.711 20.5882 17.3579C20.4009 18.0048 20.0532 18.5939 19.5775 19.0706C19.1018 19.5473 18.5134 19.8962 17.8669 20.0849C17.2204 20.2736 16.5367 20.2961 15.8792 20.1501C15.518 20.718 15.0193 21.1855 14.4293 21.5094C13.8394 21.8333 13.1772 22.0032 12.5042 22.0032C11.8312 22.0032 11.169 21.8333 10.5791 21.5094C9.98914 21.1855 9.49045 20.718 9.12922 20.1501C8.47205 20.2974 7.78832 20.2765 7.14142 20.0891C6.49453 19.9018 5.90541 19.5541 5.42868 19.0784C4.95196 18.6027 4.60308 18.0143 4.41437 17.3678C4.22567 16.7213 4.20326 16.0376 4.34922 15.3801C3.77917 15.0193 3.30963 14.5203 2.98426 13.9293C2.6589 13.3384 2.48828 12.6747 2.48828 12.0001C2.48828 11.3255 2.6589 10.6618 2.98426 10.0709C3.30963 9.47992 3.77917 8.98085 4.34922 8.6201Z" stroke="#A0A4A6" stroke-width="1.5" stroke-linecap="round" stroke-linejoin="round"/>
<path d="M15.5 9L9.5 15" stroke="#A0A4A6" stroke-width="1.5" stroke-linecap="round" stroke-linejoin="round"/>
<path d="M9.5 9H9.51" stroke="#A0A4A6" stroke-width="1.5" stroke-linecap="round" stroke-linejoin="round"/>
<path d="M15.5 15H15.51" stroke="#A0A4A6" stroke-width="1.5" stroke-linecap="round" stroke-linejoin="round"/>
</svg>
