<svg width="26" height="26" viewBox="0 0 26 26" fill="none" xmlns="http://www.w3.org/2000/svg">
    <path d="M11.3858 3.97041C11.589 3.74345 11.8378 3.5619 12.116 3.4376C12.3941 3.3133 12.6953 3.24905 13 3.24905C13.3046 3.24905 13.6059 3.3133 13.884 3.4376C14.1621 3.5619 14.4109 3.74345 14.6142 3.97041L15.3725 4.81758C15.5892 5.0597 15.8576 5.24997 16.1579 5.3743C16.4581 5.49863 16.7825 5.55384 17.1069 5.53583L18.2444 5.473C18.5487 5.45623 18.853 5.50382 19.1376 5.61266C19.4222 5.72151 19.6807 5.88916 19.8961 6.10468C20.1115 6.32019 20.279 6.57872 20.3878 6.86338C20.4965 7.14804 20.5439 7.45242 20.527 7.75666L20.4642 8.89308C20.4463 9.21736 20.5016 9.5415 20.6259 9.84153C20.7503 10.1416 20.9404 10.4098 21.1824 10.6264L22.0296 11.3847C22.2567 11.588 22.4384 11.8368 22.5628 12.1151C22.6872 12.3933 22.7515 12.6947 22.7515 12.9995C22.7515 13.3042 22.6872 13.6056 22.5628 13.8838C22.4384 14.1621 22.2567 14.4109 22.0296 14.6142L21.1824 15.3725C20.9403 15.5892 20.75 15.8576 20.6257 16.1579C20.5014 16.4581 20.4462 16.7825 20.4642 17.1069L20.527 18.2444C20.5438 18.5487 20.4962 18.853 20.3873 19.1376C20.2785 19.4222 20.1108 19.6807 19.8953 19.8961C19.6798 20.1115 19.4213 20.279 19.1366 20.3878C18.852 20.4965 18.5476 20.5439 18.2433 20.527L17.1069 20.4642C16.7826 20.4463 16.4585 20.5016 16.1585 20.6259C15.8584 20.7503 15.5902 20.9404 15.3736 21.1824L14.6152 22.0296C14.412 22.2567 14.1632 22.4384 13.8849 22.5628C13.6067 22.6872 13.3053 22.7515 13.0005 22.7515C12.6957 22.7515 12.3944 22.6872 12.1162 22.5628C11.8379 22.4384 11.5891 22.2567 11.3858 22.0296L10.6275 21.1824C10.4108 20.9403 10.1423 20.75 9.84211 20.6257C9.54188 20.5014 9.21753 20.4462 8.89308 20.4642L7.75558 20.527C7.45133 20.5438 7.14696 20.4962 6.86236 20.3873C6.57775 20.2785 6.3193 20.1108 6.10389 19.8953C5.88848 19.6798 5.72095 19.4213 5.61223 19.1366C5.50352 18.852 5.45608 18.5476 5.47299 18.2433L5.53583 17.1069C5.55367 16.7826 5.49838 16.4585 5.37406 16.1585C5.24973 15.8584 5.05955 15.5902 4.81758 15.3736L3.97041 14.6152C3.74327 14.412 3.56156 14.1632 3.43715 13.8849C3.31275 13.6067 3.24844 13.3053 3.24844 13.0005C3.24844 12.6958 3.31275 12.3944 3.43715 12.1162C3.56156 11.8379 3.74327 11.5891 3.97041 11.3858L4.81758 10.6275C5.0597 10.4108 5.24997 10.1423 5.3743 9.84212C5.49863 9.54189 5.55383 9.21754 5.53583 8.89308L5.47299 7.75558C5.45638 7.45142 5.50409 7.14718 5.613 6.8627C5.72192 6.57822 5.8896 6.31991 6.1051 6.10462C6.32059 5.88933 6.57907 5.72189 6.86364 5.61325C7.14822 5.5046 7.45251 5.45718 7.75666 5.47408L8.89308 5.53691C9.21735 5.55476 9.54149 5.49947 9.84152 5.37514C10.1415 5.25082 10.4098 5.06064 10.6264 4.81866L11.3858 3.97041Z" stroke="#FF7F00" stroke-opacity="0.5" stroke-width="1.5"/>
    <path d="M10.2917 10.2917H10.3025V10.3025H10.2917V10.2917ZM15.7083 15.7083H15.7192V15.7192H15.7083V15.7083Z" stroke="#FF7F00" stroke-opacity="0.5" stroke-width="2.25" stroke-linejoin="round"/>
    <path d="M16.25 9.75L9.75 16.25" stroke="#FF7F00" stroke-opacity="0.5" stroke-width="1.5" stroke-linecap="round" stroke-linejoin="round"/>
</svg>
