<svg width="21" height="20" viewBox="0 0 21 20" fill="none" xmlns="http://www.w3.org/2000/svg">
<path d="M3.70898 7.18358C3.58735 6.63568 3.60603 6.06595 3.76328 5.52719C3.92053 4.98844 4.21127 4.49811 4.60854 4.10168C5.00581 3.70524 5.49674 3.41553 6.03582 3.25941C6.5749 3.10328 7.14468 3.0858 7.69232 3.20858C7.99374 2.73716 8.40898 2.34921 8.89977 2.08048C9.39056 1.81175 9.9411 1.6709 10.5006 1.6709C11.0602 1.6709 11.6107 1.81175 12.1015 2.08048C12.5923 2.34921 13.0076 2.73716 13.309 3.20858C13.8575 3.08526 14.4282 3.10267 14.9681 3.25917C15.5081 3.41568 15.9997 3.70619 16.3972 4.10371C16.7947 4.50122 17.0852 4.9928 17.2417 5.53275C17.3982 6.07269 17.4156 6.64344 17.2923 7.19191C17.7637 7.49334 18.1517 7.90858 18.4204 8.39937C18.6891 8.89016 18.83 9.4407 18.83 10.0002C18.83 10.5598 18.6891 11.1103 18.4204 11.6011C18.1517 12.0919 17.7637 12.5072 17.2923 12.8086C17.4151 13.3562 17.3976 13.926 17.2415 14.4651C17.0854 15.0042 16.7957 15.4951 16.3992 15.8924C16.0028 16.2896 15.5125 16.5804 14.9737 16.7376C14.4349 16.8949 13.8652 16.9135 13.3173 16.7919C13.0163 17.2651 12.6007 17.6547 12.1091 17.9247C11.6175 18.1946 11.0657 18.3361 10.5048 18.3361C9.94396 18.3361 9.39217 18.1946 8.90054 17.9247C8.40892 17.6547 7.99335 17.2651 7.69232 16.7919C7.14468 16.9147 6.5749 16.8972 6.03582 16.7411C5.49674 16.585 5.00581 16.2952 4.60854 15.8988C4.21127 15.5024 3.92053 15.012 3.76328 14.4733C3.60603 13.9345 3.58735 13.3648 3.70898 12.8169C3.23395 12.5163 2.84266 12.1004 2.57152 11.6079C2.30038 11.1155 2.1582 10.5624 2.1582 10.0002C2.1582 9.43807 2.30038 8.88503 2.57152 8.39257C2.84266 7.9001 3.23395 7.48421 3.70898 7.18358Z" stroke="#0E7F3F" stroke-linecap="round" stroke-linejoin="round"/>
<path d="M13 7.5L8 12.5" stroke="#0E7F3F" stroke-linecap="round" stroke-linejoin="round"/>
<path d="M8 7.5H8.00833" stroke="#0E7F3F" stroke-linecap="round" stroke-linejoin="round"/>
<path d="M13 12.5H13.0083" stroke="#0E7F3F" stroke-linecap="round" stroke-linejoin="round"/>
</svg>
