<svg width="69" height="28" viewBox="0 0 69 28" fill="none" xmlns="http://www.w3.org/2000/svg">
<rect x="0.25" y="0.25" width="68.5" height="27.5" rx="5.75" fill="white"/>
<rect x="0.25" y="0.25" width="68.5" height="27.5" rx="5.75" stroke="#C2C2C2" stroke-width="0.5"/>
<path d="M12.4943 18.15C12.401 18.206 12.247 18.2947 12.0323 18.416L12.0043 18.43C11.239 18.8593 10.7256 19.228 10.4643 19.536C10.2123 19.844 10.0863 20.2547 10.0863 20.768C10.0863 21.384 10.2963 21.888 10.7163 22.28C11.1456 22.6813 11.6963 22.882 12.3683 22.882H12.3963C13.4603 22.882 14.3143 22.644 14.9583 22.168V23.022C14.193 23.5073 13.3296 23.75 12.3683 23.75C11.3603 23.75 10.5576 23.4187 9.9603 22.756C9.46564 22.196 9.2183 21.524 9.2183 20.74C9.2183 20.0773 9.38164 19.5453 9.7083 19.144C10.035 18.7427 10.693 18.2667 11.6823 17.716C10.8703 17.1653 10.0116 16.246 9.1063 14.958V14.384C10.077 13.0213 11.2203 12.34 12.5363 12.34C13.1523 12.34 13.7636 12.522 14.3703 12.886C14.977 13.25 15.5136 13.7587 15.9803 14.412V14.958C15.3363 15.8447 14.473 16.708 13.3903 17.548C13.633 17.604 13.885 17.632 14.1463 17.632H17.5343V18.5H14.0903C13.5396 18.5 13.0076 18.3833 12.4943 18.15ZM9.9183 14.692C10.8983 15.98 11.7616 16.82 12.5083 17.212C13.4696 16.54 14.3563 15.6907 15.1683 14.664C14.4216 13.684 13.5443 13.194 12.5363 13.194H12.4943C11.533 13.194 10.6743 13.6933 9.9183 14.692ZM18.1375 10.632L18.4035 10.142H18.7675C18.6742 9.974 18.6275 9.80133 18.6275 9.624C18.6275 9.36267 18.7255 9.13867 18.9215 8.952C19.1175 8.756 19.3508 8.658 19.6215 8.658C19.8268 8.658 20.0275 8.72333 20.2235 8.854V9.372C20.0368 9.24133 19.8548 9.176 19.6775 9.176C19.5282 9.176 19.4022 9.22733 19.2995 9.33C19.1968 9.42333 19.1455 9.53533 19.1455 9.666C19.1455 9.82467 19.2108 9.98333 19.3415 10.142H20.5735L20.3075 10.632H18.1375ZM17.2555 18.5V17.632H17.7455C18.7722 17.632 19.2855 17.1 19.2855 16.036V12.998L20.2235 12.508V16.064C20.2235 16.848 19.9948 17.4593 19.5375 17.898C19.1175 18.2993 18.5575 18.5 17.8575 18.5H17.2555ZM24.877 18.5C24.0836 18.5 23.4723 18.2433 23.043 17.73C22.6883 17.2913 22.511 16.736 22.511 16.064V9.96L23.449 9.47V16.036C23.449 17.1 23.9623 17.632 24.989 17.632H25.479V18.5H24.877ZM32.6049 9.666C32.2689 9.666 32.1009 9.48867 32.1009 9.134C32.1009 8.798 32.2689 8.63 32.6049 8.63C32.9409 8.63 33.1089 8.798 33.1089 9.134C33.1089 9.48867 32.9409 9.666 32.6049 9.666ZM31.8209 11.122C31.4382 11.122 31.2469 10.9307 31.2469 10.548C31.2469 10.1653 31.4382 9.974 31.8209 9.974C32.1849 9.974 32.3669 10.1653 32.3669 10.548C32.3669 10.9307 32.1849 11.122 31.8209 11.122ZM33.4169 11.122C33.0435 11.122 32.8569 10.9307 32.8569 10.548C32.8569 10.1653 33.0435 9.974 33.4169 9.974C33.7902 9.974 33.9769 10.1653 33.9769 10.548C33.9769 10.9307 33.7902 11.122 33.4169 11.122ZM25.1989 18.5V17.632H26.0529C27.0889 17.632 27.6069 17.1 27.6069 16.036V14.02L28.5449 13.53V16.036C28.5449 17.1 29.0582 17.632 30.0849 17.632H30.6029C31.6295 17.632 32.1429 17.1 32.1429 16.036V13.516L33.0809 13.012V16.036C33.0809 17.1 33.5989 17.632 34.6349 17.632H35.1389C36.1749 17.632 36.6929 17.1 36.6929 16.036V12.998L37.6309 12.508V16.064C37.6309 16.8387 37.4022 17.4453 36.9449 17.884C36.5342 18.2853 35.9789 18.4907 35.2789 18.5H34.5089C33.6409 18.5 33.0109 18.192 32.6189 17.576C32.2175 18.192 31.5922 18.5 30.7429 18.5H29.9729C29.1049 18.5 28.4702 18.192 28.0689 17.576C27.6769 18.192 27.0469 18.5 26.1789 18.5H25.1989Z" fill="#0E7F3F"/>
<path d="M61.3327 9.8335L54.2493 16.9168L50.0827 12.7502L44.666 18.1668" stroke="#0E7F3F" stroke-linecap="round" stroke-linejoin="round"/>
<path d="M56.334 9.8335H61.334V14.8335" stroke="#0E7F3F" stroke-linecap="round" stroke-linejoin="round"/>
</svg>
