<svg width="26" height="26" viewBox="0 0 26 26" fill="none" xmlns="http://www.w3.org/2000/svg">
    <path d="M6.75106 6H20.0234C21.3715 6 22.3234 7.33739 21.8971 8.63246L20.2512 13.6325C19.9823 14.4491 19.2276 15 18.3774 15H8.02079M6.75106 6L6.71117 5.71716C6.57216 4.73186 5.73881 4 4.75589 4H4M6.75106 6L8.02079 15M8.02079 15L8.20178 16.2828C8.34079 17.2681 9.17413 18 10.1571 18H18.8135M18.8135 18C17.7226 18 16.8383 18.8954 16.8383 20C16.8383 21.1046 17.7226 22 18.8135 22C19.9043 22 20.7886 21.1046 20.7886 20C20.7886 18.8954 19.9043 18 18.8135 18ZM12.8881 20C12.8881 21.1046 12.0038 22 10.9129 22C9.82211 22 8.93782 21.1046 8.93782 20C8.93782 18.8954 9.82211 18 10.9129 18C12.0038 18 12.8881 18.8954 12.8881 20Z" stroke="#1A1A1A" stroke-linecap="round" stroke-linejoin="round"/>
</svg>
