<svg xmlns="http://www.w3.org/2000/svg" version="1.1" xmlns:xlink="http://www.w3.org/1999/xlink" width="512" height="512" x="0" y="0" viewBox="0 0 48 48" style="enable-background:new 0 0 512 512" xml:space="preserve" class=""><g><path d="M17.519 8.698a2.068 2.068 0 0 0-3.038 0l-6 7a2 2 0 1 0 3.038 2.604L14 15.407V34a2 2 0 0 0 4 0V15.407l2.481 2.895a2 2 0 0 0 3.038-2.604zM39.302 29.481a2.002 2.002 0 0 0-2.82.217L34 32.593V14a2 2 0 0 0-4 0v18.593l-2.481-2.895a2 2 0 1 0-3.038 2.604l6 7a2 2 0 0 0 3.038 0l6-7a2 2 0 0 0-.217-2.82z" fill="#000000" opacity="1" data-original="#000000" class=""></path></g></svg>