<svg width="343" height="150" viewBox="0 0 343 150" fill="none" xmlns="http://www.w3.org/2000/svg">
<rect x="0.5" y="0.5" width="342" height="149" rx="7.5" fill="#FAFAFA"/>
<path d="M176 89.3346H168C160.76 89.3346 157.667 86.2413 157.667 79.0013V71.0013C157.667 63.7613 160.76 60.668 168 60.668H176C183.24 60.668 186.334 63.7613 186.334 71.0013V79.0013C186.334 86.2413 183.24 89.3346 176 89.3346ZM168 62.668C161.854 62.668 159.667 64.8546 159.667 71.0013V79.0013C159.667 85.148 161.854 87.3346 168 87.3346H176C182.147 87.3346 184.334 85.148 184.334 79.0013V71.0013C184.334 64.8546 182.147 62.668 176 62.668H168Z" fill="#907879"/>
<path d="M168 73.3333C165.973 73.3333 164.333 71.6933 164.333 69.6667C164.333 67.64 165.973 66 168 66C170.026 66 171.666 67.64 171.666 69.6667C171.666 71.6933 170.026 73.3333 168 73.3333ZM168 68C167.08 68 166.333 68.7467 166.333 69.6667C166.333 70.5867 167.08 71.3333 168 71.3333C168.92 71.3333 169.666 70.5867 169.666 69.6667C169.666 68.7467 168.92 68 168 68Z" fill="#907879"/>
<path d="M159.56 85.2661C159.24 85.2661 158.92 85.1061 158.734 84.8261C158.427 84.3728 158.547 83.7461 159.014 83.4394L165.587 79.0261C167.027 78.0528 169.014 78.1728 170.32 79.2794L170.76 79.6661C171.427 80.2394 172.56 80.2394 173.214 79.6661L178.76 74.9061C180.174 73.6928 182.4 73.6928 183.827 74.9061L186 76.7728C186.414 77.1328 186.467 77.7594 186.107 78.1861C185.747 78.5994 185.12 78.6528 184.694 78.2928L182.52 76.4261C181.854 75.8528 180.72 75.8528 180.054 76.4261L174.507 81.1861C173.094 82.3994 170.867 82.3994 169.44 81.1861L169 80.7994C168.387 80.2794 167.374 80.2261 166.694 80.6928L160.12 85.1061C159.947 85.2128 159.747 85.2661 159.56 85.2661Z" fill="#907879"/>
<rect x="0.5" y="0.5" width="342" height="149" rx="7.5" stroke="#EB464B" stroke-dasharray="6 6"/>
</svg>
